<svg xmlns="http://www.w3.org/2000/svg" width="40.359" height="40.367" viewBox="0 0 40.359 40.367">
  <g id="instagram_1_" data-name="instagram (1)" transform="translate(-0.449)">
    <path id="Path_3" data-name="Path 3" d="M40.706,11.868a14.75,14.75,0,0,0-.938-4.9,10.341,10.341,0,0,0-5.907-5.906,14.788,14.788,0,0,0-4.9-.938C26.8.024,26.117,0,20.637,0S14.47.024,12.317.118a14.754,14.754,0,0,0-4.9.938A9.849,9.849,0,0,0,3.84,3.391,9.939,9.939,0,0,0,1.514,6.963a14.79,14.79,0,0,0-.938,4.9c-.1,2.161-.126,2.847-.126,8.328s.024,6.167.118,8.319a14.749,14.749,0,0,0,.939,4.9,10.339,10.339,0,0,0,5.906,5.906,14.79,14.79,0,0,0,4.9.938c2.153.095,2.839.118,8.319.118s6.167-.023,8.319-.118a14.747,14.747,0,0,0,4.9-.938A10.325,10.325,0,0,0,39.752,33.4a14.8,14.8,0,0,0,.938-4.9c.095-2.153.118-2.839.118-8.319S40.8,14.021,40.706,11.868ZM37.071,28.349a11.064,11.064,0,0,1-.694,3.746,6.7,6.7,0,0,1-3.833,3.833,11.1,11.1,0,0,1-3.746.694c-2.129.095-2.768.118-8.154.118s-6.033-.023-8.154-.118a11.059,11.059,0,0,1-3.746-.694,6.212,6.212,0,0,1-2.318-1.506A6.276,6.276,0,0,1,4.92,32.1a11.105,11.105,0,0,1-.694-3.746c-.095-2.129-.118-2.768-.118-8.154s.023-6.033.118-8.154A11.059,11.059,0,0,1,4.92,8.3,6.136,6.136,0,0,1,6.435,5.985,6.266,6.266,0,0,1,8.753,4.479,11.111,11.111,0,0,1,12.5,3.785c2.129-.095,2.768-.118,8.154-.118s6.033.024,8.154.118a11.064,11.064,0,0,1,3.746.694,6.207,6.207,0,0,1,2.318,1.506A6.275,6.275,0,0,1,36.377,8.3a11.109,11.109,0,0,1,.694,3.746c.095,2.129.118,2.768.118,8.154S37.166,26.22,37.071,28.349Zm0,0" fill="#fff"/>
    <path id="Path_4" data-name="Path 4" d="M135.319,124.5a10.37,10.37,0,1,0,10.37,10.37A10.372,10.372,0,0,0,135.319,124.5Zm0,17.1a6.727,6.727,0,1,1,6.727-6.727A6.728,6.728,0,0,1,135.319,141.6Zm0,0" transform="translate(-114.682 -114.682)" fill="#fff"/>
    <path id="Path_5" data-name="Path 5" d="M367.291,91.022A2.421,2.421,0,1,1,364.87,88.6,2.421,2.421,0,0,1,367.291,91.022Zm0,0" transform="translate(-333.453 -81.615)" fill="#fff"/>
  </g>
</svg>
